<svg xmlns="http://www.w3.org/2000/svg" width="1080" height="1350" viewBox="0 0 1080 1350"><style>@import url('https://fonts.googleapis.com/css2?family=Red+Hat+Display:wght@500;600;700;800&amp;family=Plus+Jakarta+Sans:wght@400;500;600;700&amp;family=IBM+Plex+Sans+Thai:wght@400;500;600;700&amp;display=block');@font-face{font-family:"LINE Seed Sans TH";font-weight:700;src:url(https://cdn.jsdelivr.net/npm/@fontpkg/line-seed-sans-th@1.0.1/LINESeedSansTH_Bd.ttf)}@font-face{font-family:"LINE Seed Sans TH";font-weight:800;src:url(https://cdn.jsdelivr.net/npm/@fontpkg/line-seed-sans-th@1.0.1/LINESeedSansTH_XBd.ttf)}</style><rect width="1080" height="1350" fill="#EEF3FC"/><rect x="872" y="96" width="56" height="56" rx="8" fill="#0059FF"/><rect x="940" y="164" width="48" height="48" rx="8" fill="#0059FF"/><rect x="1000" y="224" width="32" height="32" rx="6" fill="#7FAEFF"/><rect x="952" y="80" width="28" height="28" rx="6" fill="#7FAEFF"/><rect x="88" y="147" width="20" height="20" rx="4" fill="#0059FF"/><text font-family="'Plus Jakarta Sans','IBM Plex Sans Thai',sans-serif" font-size="28" font-weight="600" fill="#041A53" letter-spacing="1"><tspan x="124" y="168">ทำไมต้องเรา</tspan></text><text font-family="'Red Hat Display','LINE Seed Sans TH',sans-serif" font-size="88" font-weight="800" fill="#041A53"><tspan x="88" y="318">ทำไมต้อง</tspan><tspan x="88" y="425.36"><tspan fill="#0059FF">Krabi Digital</tspan></tspan></text><rect x="88" y="484" width="440" height="294" rx="24" fill="#FFFFFF"/><rect x="128" y="528" width="22" height="22" rx="4" fill="#0059FF"/><text font-family="'Red Hat Display','LINE Seed Sans TH',sans-serif" font-size="24" font-weight="700" fill="#56627F"><tspan x="164" y="548">01</tspan></text><text font-family="'Red Hat Display','LINE Seed Sans TH',sans-serif" font-size="52" font-weight="800" fill="#041A53"><tspan x="128" y="634">ใกล้ตัว</tspan></text><text font-family="'Plus Jakarta Sans','IBM Plex Sans Thai',sans-serif" font-size="26" font-weight="400" fill="#56627F"><tspan x="128" y="694">คนกระบี่ คุยภาษาเดียวกับ</tspan><tspan x="128" y="734.3">เจ้าของธุรกิจ นัดเจอได้</tspan></text><rect x="552" y="484" width="440" height="294" rx="24" fill="#FFFFFF"/><rect x="592" y="528" width="22" height="22" rx="4" fill="#0059FF"/><text font-family="'Red Hat Display','LINE Seed Sans TH',sans-serif" font-size="24" font-weight="700" fill="#56627F"><tspan x="628" y="548">02</tspan></text><text font-family="'Red Hat Display','LINE Seed Sans TH',sans-serif" font-size="52" font-weight="800" fill="#041A53"><tspan x="592" y="634">พอดี</tspan></text><text font-family="'Plus Jakarta Sans','IBM Plex Sans Thai',sans-serif" font-size="26" font-weight="400" fill="#56627F"><tspan x="592" y="694">เสนอสิ่งที่ธุรกิจใช้จริง</tspan><tspan x="592" y="734.3">พอดีกับงบ ไม่ยัดฟีเจอร์</tspan></text><rect x="88" y="802" width="440" height="294" rx="24" fill="#FFFFFF"/><rect x="128" y="846" width="22" height="22" rx="4" fill="#0059FF"/><text font-family="'Red Hat Display','LINE Seed Sans TH',sans-serif" font-size="24" font-weight="700" fill="#56627F"><tspan x="164" y="866">03</tspan></text><text font-family="'Red Hat Display','LINE Seed Sans TH',sans-serif" font-size="52" font-weight="800" fill="#041A53"><tspan x="128" y="952">ชัดเจน</tspan></text><text font-family="'Plus Jakarta Sans','IBM Plex Sans Thai',sans-serif" font-size="26" font-weight="400" fill="#56627F"><tspan x="128" y="1012">อธิบายเรื่องเทคนิคให้เข้าใจง่าย</tspan><tspan x="128" y="1052.3">ราคาและขั้นตอนบอกตรงๆ</tspan></text><rect x="552" y="802" width="440" height="294" rx="24" fill="#FFFFFF"/><rect x="592" y="846" width="22" height="22" rx="4" fill="#0059FF"/><text font-family="'Red Hat Display','LINE Seed Sans TH',sans-serif" font-size="24" font-weight="700" fill="#56627F"><tspan x="628" y="866">04</tspan></text><text font-family="'Red Hat Display','LINE Seed Sans TH',sans-serif" font-size="52" font-weight="800" fill="#041A53"><tspan x="592" y="952">อยู่ยาว</tspan></text><text font-family="'Plus Jakarta Sans','IBM Plex Sans Thai',sans-serif" font-size="26" font-weight="400" fill="#56627F"><tspan x="592" y="1012">มีประกันหลังส่งงาน</tspan><tspan x="592" y="1052.3">และแผนดูแลรายเดือน</tspan></text><rect x="88" y="1166" width="904" height="2" fill="#DCE3F0"/><g transform="translate(88 1210) scale(0.5909090909090909)"><g transform="translate(-8,-8)"><rect x="12" y="12" width="22" height="76" rx="2" fill="#041A53"/><path d="M34 50 L62 12 H88 L52 62 H34Z" fill="#0059FF"/><rect x="52" y="58" width="14" height="14" rx="2" fill="#0059FF"/><rect x="69" y="71" width="12" height="12" rx="2" fill="#0059FF"/><rect x="84" y="84" width="8" height="8" rx="1.5" fill="#7FAEFF"/><rect x="72" y="56" width="7" height="7" rx="1.5" fill="#7FAEFF"/></g><text x="102" y="47" font-family="Red Hat Display, sans-serif" font-weight="700" font-size="37" letter-spacing="-0.55" fill="#041A53">Krabi Digital</text><text x="103" y="69" font-family="Red Hat Display, sans-serif" font-weight="600" font-size="14" letter-spacing="6.2" fill="#041A53" fill-opacity=".72">SOLUTIONS</text></g><text font-family="'Plus Jakarta Sans','IBM Plex Sans Thai',sans-serif" font-size="26" font-weight="500" fill="#041A53" text-anchor="end" fill-opacity="0.72"><tspan x="992" y="1246">krabitech.com</tspan></text></svg>