<svg xmlns="http://www.w3.org/2000/svg" width="2500" height="1686" viewBox="0 0 2500 1686"><style>@import url('https://fonts.googleapis.com/css2?family=Red+Hat+Display:wght@500;600;700;800&amp;family=Plus+Jakarta+Sans:wght@400;500;600;700&amp;family=IBM+Plex+Sans+Thai:wght@400;500;600;700&amp;display=block');@font-face{font-family:"LINE Seed Sans TH";font-weight:700;src:url(https://cdn.jsdelivr.net/npm/@fontpkg/line-seed-sans-th@1.0.1/LINESeedSansTH_Bd.ttf)}@font-face{font-family:"LINE Seed Sans TH";font-weight:800;src:url(https://cdn.jsdelivr.net/npm/@fontpkg/line-seed-sans-th@1.0.1/LINESeedSansTH_XBd.ttf)}</style><rect width="2500" height="1686" fill="#041A53"/><rect x="24" y="24" width="801.3333333333334" height="807" rx="48" fill="#FFFFFF"/><g transform="translate(324.6666666666667 161.19) scale(8.333333333333334)" fill="none" stroke="#041A53" stroke-width="2" stroke-linecap="round" stroke-linejoin="round"><rect x="3" y="3" width="7" height="7" rx="2"/><rect x="14" y="3" width="7" height="7" rx="2"/><rect x="3" y="14" width="7" height="7" rx="2"/><rect x="14" y="14" width="7" height="7" rx="2" fill="#0059FF" stroke="none"/></g><text font-family="'Red Hat Display','LINE Seed Sans TH',sans-serif" font-size="92" font-weight="800" fill="#041A53" text-anchor="middle"><tspan x="424.6666666666667" y="511.19">บริการของเรา</tspan></text><text font-family="'Plus Jakarta Sans','IBM Plex Sans Thai',sans-serif" font-size="50" font-weight="500" fill="#041A53" text-anchor="middle"><tspan x="424.6666666666667" y="599.19">เว็บ · ดีไซน์ · การตลาด · ระบบ</tspan></text><rect x="849.3333333333334" y="24" width="801.3333333333334" height="807" rx="48" fill="#FFFFFF"/><g transform="translate(1150 161.19) scale(8.333333333333334)" fill="none" stroke="#041A53" stroke-width="2" stroke-linecap="round" stroke-linejoin="round"><path d="M12 21.5s-7-6-7-11.5a7 7 0 0 1 14 0c0 5.5-7 11.5-7 11.5z"/><rect x="10.5" y="8.5" width="3" height="3" rx=".6" fill="#0059FF" stroke="none"/></g><text font-family="'Red Hat Display','LINE Seed Sans TH',sans-serif" font-size="92" font-weight="800" fill="#041A53" text-anchor="middle"><tspan x="1250" y="511.19">ระบบจอง / ทัวร์</tspan></text><text font-family="'Plus Jakarta Sans','IBM Plex Sans Thai',sans-serif" font-size="50" font-weight="500" fill="#041A53" text-anchor="middle"><tspan x="1250" y="599.19">โรงแรม · ที่พัก · ทัวร์</tspan></text><rect x="1674.6666666666667" y="24" width="801.3333333333334" height="807" rx="48" fill="#0059FF"/><g transform="translate(1975.3333333333335 161.19) scale(8.333333333333334)" fill="none" stroke="#FFFFFF" stroke-width="2" stroke-linecap="round" stroke-linejoin="round"><path d="M14 2H6a2 2 0 0 0-2 2v16a2 2 0 0 0 2 2h12a2 2 0 0 0 2-2V8z"/><path d="M14 2v6h6M8 13h8M8 17h4"/><rect x="14" y="15.5" width="3" height="3" rx=".6" fill="#09FFFF" stroke="none"/></g><text font-family="'Red Hat Display','LINE Seed Sans TH',sans-serif" font-size="92" font-weight="800" fill="#FFFFFF" text-anchor="middle"><tspan x="2075.3333333333335" y="511.19">ขอใบเสนอราคา</tspan></text><text font-family="'Plus Jakarta Sans','IBM Plex Sans Thai',sans-serif" font-size="50" font-weight="500" fill="#FFFFFF" text-anchor="middle" fill-opacity="0.85"><tspan x="2075.3333333333335" y="599.19">ตอบภายใน 1 วันทำการ</tspan></text><rect x="24" y="855" width="801.3333333333334" height="807" rx="48" fill="#FFFFFF"/><g transform="translate(324.6666666666667 992.19) scale(8.333333333333334)" fill="none" stroke="#041A53" stroke-width="2" stroke-linecap="round" stroke-linejoin="round"><path d="M21 15a2 2 0 0 1-2 2H7l-4 4V5a2 2 0 0 1 2-2h14a2 2 0 0 1 2 2z"/><rect x="13.5" y="8.5" width="3" height="3" rx=".6" fill="#0059FF" stroke="none"/></g><text font-family="'Red Hat Display','LINE Seed Sans TH',sans-serif" font-size="92" font-weight="800" fill="#041A53" text-anchor="middle"><tspan x="424.6666666666667" y="1342.19">คุยกับทีม</tspan></text><text font-family="'Plus Jakarta Sans','IBM Plex Sans Thai',sans-serif" font-size="50" font-weight="500" fill="#041A53" text-anchor="middle"><tspan x="424.6666666666667" y="1430.19">จันทร์–เสาร์ 09:00–18:00</tspan></text><rect x="849.3333333333334" y="855" width="801.3333333333334" height="807" rx="48" fill="#FFFFFF"/><g transform="translate(1150 992.19) scale(8.333333333333334)" fill="none" stroke="#041A53" stroke-width="2" stroke-linecap="round" stroke-linejoin="round"><path d="M22 16.92v3a2 2 0 0 1-2.18 2 19.79 19.79 0 0 1-8.63-3.07 19.5 19.5 0 0 1-6-6 19.79 19.79 0 0 1-3.07-8.67A2 2 0 0 1 4.11 2h3a2 2 0 0 1 2 1.72 12.84 12.84 0 0 0 .7 2.81 2 2 0 0 1-.45 2.11L8.09 9.91a16 16 0 0 0 6 6l1.27-1.27a2 2 0 0 1 2.11-.45 12.84 12.84 0 0 0 2.81.7A2 2 0 0 1 22 16.92z"/><rect x="16" y="3" width="3" height="3" rx=".6" fill="#0059FF" stroke="none"/></g><text font-family="'Red Hat Display','LINE Seed Sans TH',sans-serif" font-size="92" font-weight="800" fill="#041A53" text-anchor="middle"><tspan x="1250" y="1342.19">โทรหาเรา</tspan></text><text font-family="'Plus Jakarta Sans','IBM Plex Sans Thai',sans-serif" font-size="50" font-weight="500" fill="#041A53" text-anchor="middle"><tspan x="1250" y="1430.19">080-893-0617</tspan></text><rect x="1674.6666666666667" y="855" width="801.3333333333334" height="807" rx="48" fill="#FFFFFF"/><g transform="translate(1975.3333333333335 992.19) scale(8.333333333333334)" fill="none" stroke="#041A53" stroke-width="2" stroke-linecap="round" stroke-linejoin="round"><circle cx="12" cy="12" r="10"/><path d="M2 12h20M12 2a15.3 15.3 0 0 1 4 10 15.3 15.3 0 0 1-4 10 15.3 15.3 0 0 1-4-10 15.3 15.3 0 0 1 4-10z"/><rect x="16.6" y="5.6" width="3" height="3" rx=".6" fill="#0059FF" stroke="none"/></g><text font-family="'Red Hat Display','LINE Seed Sans TH',sans-serif" font-size="92" font-weight="800" fill="#041A53" text-anchor="middle"><tspan x="2075.3333333333335" y="1342.19">เว็บไซต์</tspan></text><text font-family="'Plus Jakarta Sans','IBM Plex Sans Thai',sans-serif" font-size="50" font-weight="500" fill="#041A53" text-anchor="middle"><tspan x="2075.3333333333335" y="1430.19">krabitech.com</tspan></text></svg>