<svg xmlns="http://www.w3.org/2000/svg" aria-hidden="true"><symbol id="kd-si-frame" viewBox="0 0 24 24"><path d="M5 0H19A5 5 0 0 1 24 5V18A1 1 0 0 1 23 19H20A1 1 0 0 0 19 20V23A1 1 0 0 1 18 24H5A5 5 0 0 1 0 19V5A5 5 0 0 1 5 0Z" style="fill:var(--kd-si-bg,#041A53)"/><rect x="20.5" y="20.5" width="3.5" height="3.5" rx=".8" style="fill:var(--kd-si-px,#7FAEFF)"/></symbol><symbol id="kd-si-facebook" viewBox="0 0 24 24"><path fill="currentColor" d="M9.101 23.691v-7.98H6.627v-3.667h2.474v-1.58c0-4.085 1.848-5.978 5.858-5.978.401 0 .955.042 1.468.103a8.68 8.68 0 0 1 1.141.195v3.325a8.623 8.623 0 0 0-.653-.036 26.805 26.805 0 0 0-.733-.009c-.707 0-1.259.096-1.675.309a1.686 1.686 0 0 0-.679.622c-.258.42-.374.995-.374 1.752v1.297h3.919l-.386 2.103-.287 1.564h-3.246v8.245C19.396 23.238 24 18.179 24 12.044c0-6.627-5.373-12-12-12s-12 5.373-12 12c0 5.628 3.874 10.35 9.101 11.647Z"/></symbol><symbol id="kd-si-messenger" viewBox="0 0 24 24"><path fill="currentColor" d="M12 0C5.24 0 0 4.952 0 11.64c0 3.499 1.434 6.521 3.769 8.61a.96.96 0 0 1 .323.683l.065 2.135a.96.96 0 0 0 1.347.85l2.381-1.053a.96.96 0 0 1 .641-.046A13 13 0 0 0 12 23.28c6.76 0 12-4.952 12-11.64S18.76 0 12 0m6.806 7.44c.522-.03.971.567.63 1.094l-4.178 6.457a.707.707 0 0 1-.977.208l-3.87-2.504a.44.44 0 0 0-.49.007l-4.363 3.01c-.637.438-1.415-.317-.995-.966l4.179-6.457a.706.706 0 0 1 .977-.21l3.87 2.505c.15.097.344.094.491-.007l4.362-3.008a.7.7 0 0 1 .364-.13"/></symbol><symbol id="kd-si-instagram" viewBox="0 0 24 24"><path fill="currentColor" d="M7.0301.084c-1.2768.0602-2.1487.264-2.911.5634-.7888.3075-1.4575.72-2.1228 1.3877-.6652.6677-1.075 1.3368-1.3802 2.127-.2954.7638-.4956 1.6365-.552 2.914-.0564 1.2775-.0689 1.6882-.0626 4.947.0062 3.2586.0206 3.6671.0825 4.9473.061 1.2765.264 2.1482.5635 2.9107.308.7889.72 1.4573 1.388 2.1228.6679.6655 1.3365 1.0743 2.1285 1.38.7632.295 1.6361.4961 2.9134.552 1.2773.056 1.6884.069 4.9462.0627 3.2578-.0062 3.668-.0207 4.9478-.0814 1.28-.0607 2.147-.2652 2.9098-.5633.7889-.3086 1.4578-.72 2.1228-1.3881.665-.6682 1.0745-1.3378 1.3795-2.1284.2957-.7632.4966-1.636.552-2.9124.056-1.2809.0692-1.6898.063-4.948-.0063-3.2583-.021-3.6668-.0817-4.9465-.0607-1.2797-.264-2.1487-.5633-2.9117-.3084-.7889-.72-1.4568-1.3876-2.1228C21.2982 1.33 20.628.9208 19.8378.6165 19.074.321 18.2017.1197 16.9244.0645 15.6471.0093 15.236-.005 11.977.0014 8.718.0076 8.31.0215 7.0301.0839m.1402 21.6932c-1.17-.0509-1.8053-.2453-2.2287-.408-.5606-.216-.96-.4771-1.3819-.895-.422-.4178-.6811-.8186-.9-1.378-.1644-.4234-.3624-1.058-.4171-2.228-.0595-1.2645-.072-1.6442-.079-4.848-.007-3.2037.0053-3.583.0607-4.848.05-1.169.2456-1.805.408-2.2282.216-.5613.4762-.96.895-1.3816.4188-.4217.8184-.6814 1.3783-.9003.423-.1651 1.0575-.3614 2.227-.4171 1.2655-.06 1.6447-.072 4.848-.079 3.2033-.007 3.5835.005 4.8495.0608 1.169.0508 1.8053.2445 2.228.408.5608.216.96.4754 1.3816.895.4217.4194.6816.8176.9005 1.3787.1653.4217.3617 1.056.4169 2.2263.0602 1.2655.0739 1.645.0796 4.848.0058 3.203-.0055 3.5834-.061 4.848-.051 1.17-.245 1.8055-.408 2.2294-.216.5604-.4763.96-.8954 1.3814-.419.4215-.8181.6811-1.3783.9-.4224.1649-1.0577.3617-2.2262.4174-1.2656.0595-1.6448.072-4.8493.079-3.2045.007-3.5825-.006-4.848-.0608M16.953 5.5864A1.44 1.44 0 1 0 18.39 4.144a1.44 1.44 0 0 0-1.437 1.4424M5.8385 12.012c.0067 3.4032 2.7706 6.1557 6.173 6.1493 3.4026-.0065 6.157-2.7701 6.1506-6.1733-.0065-3.4032-2.771-6.1565-6.174-6.1498-3.403.0067-6.156 2.771-6.1496 6.1738M8 12.0077a4 4 0 1 1 4.008 3.9921A3.9996 3.9996 0 0 1 8 12.0077"/></symbol><symbol id="kd-si-line" viewBox="0 0 24 24"><path fill="currentColor" d="M19.365 9.863c.349 0 .63.285.63.631 0 .345-.281.63-.63.63H17.61v1.125h1.755c.349 0 .63.283.63.63 0 .344-.281.629-.63.629h-2.386c-.345 0-.627-.285-.627-.629V8.108c0-.345.282-.63.63-.63h2.386c.346 0 .627.285.627.63 0 .349-.281.63-.63.63H17.61v1.125h1.755zm-3.855 3.016c0 .27-.174.51-.432.596-.064.021-.133.031-.199.031-.211 0-.391-.09-.51-.25l-2.443-3.317v2.94c0 .344-.279.629-.631.629-.346 0-.626-.285-.626-.629V8.108c0-.27.173-.51.43-.595.06-.023.136-.033.194-.033.195 0 .375.104.495.254l2.462 3.33V8.108c0-.345.282-.63.63-.63.345 0 .63.285.63.63v4.771zm-5.741 0c0 .344-.282.629-.631.629-.345 0-.627-.285-.627-.629V8.108c0-.345.282-.63.63-.63.346 0 .628.285.628.63v4.771zm-2.466.629H4.917c-.345 0-.63-.285-.63-.629V8.108c0-.345.285-.63.63-.63.348 0 .63.285.63.63v4.141h1.756c.348 0 .629.283.629.63 0 .344-.282.629-.629.629M24 10.314C24 4.943 18.615.572 12 .572S0 4.943 0 10.314c0 4.811 4.27 8.842 10.035 9.608.391.082.923.258 1.058.59.12.301.079.766.038 1.08l-.164 1.02c-.045.301-.24 1.186 1.049.645 1.291-.539 6.916-4.078 9.436-6.975C23.176 14.393 24 12.458 24 10.314"/></symbol><symbol id="kd-si-tiktok" viewBox="0 0 24 24"><path fill="currentColor" d="M12.525.02c1.31-.02 2.61-.01 3.91-.02.08 1.53.63 3.09 1.75 4.17 1.12 1.11 2.7 1.62 4.24 1.79v4.03c-1.44-.05-2.89-.35-4.2-.97-.57-.26-1.1-.59-1.62-.93-.01 2.92.01 5.84-.02 8.75-.08 1.4-.54 2.79-1.35 3.94-1.31 1.92-3.58 3.17-5.91 3.21-1.43.08-2.86-.31-4.08-1.03-2.02-1.19-3.44-3.37-3.65-5.71-.02-.5-.03-1-.01-1.49.18-1.9 1.12-3.72 2.58-4.96 1.66-1.44 3.98-2.13 6.15-1.72.02 1.48-.04 2.96-.04 4.44-.99-.32-2.15-.23-3.02.37-.63.41-1.11 1.04-1.36 1.75-.21.51-.15 1.07-.14 1.61.24 1.64 1.82 3.02 3.5 2.87 1.12-.01 2.19-.66 2.77-1.61.19-.33.4-.67.41-1.06.1-1.79.06-3.57.07-5.36.01-4.03-.01-8.05.02-12.07z"/></symbol><symbol id="kd-si-youtube" viewBox="0 0 24 24"><path fill="currentColor" d="M23.498 6.186a3.016 3.016 0 0 0-2.122-2.136C19.505 3.545 12 3.545 12 3.545s-7.505 0-9.377.505A3.017 3.017 0 0 0 .502 6.186C0 8.07 0 12 0 12s0 3.93.502 5.814a3.016 3.016 0 0 0 2.122 2.136c1.871.505 9.376.505 9.376.505s7.505 0 9.377-.505a3.015 3.015 0 0 0 2.122-2.136C24 15.93 24 12 24 12s0-3.93-.502-5.814zM9.545 15.568V8.432L15.818 12l-6.273 3.568z"/></symbol><symbol id="kd-si-threads" viewBox="0 0 24 24"><path fill="currentColor" d="M18.263 11.097c-.03-3.486-1.92-5.586-5.111-5.586-2.13 0-3.922.963-4.863 2.499l2.062 1.438c.535-.843 1.272-1.543 2.628-1.543 1.528 0 2.318.85 2.544 2.431a15 15 0 0 0-2.236-.173c-4.125 0-6.068 1.867-6.068 4.336s1.943 3.99 4.804 3.99c3.139 0 5.013-2.115 5.781-4.735.798.361 1.348 1.204 1.348 2.47 0 3.387-3.907 5.232-7.22 5.232-4.885 0-8.077-3.207-8.077-8.424 0-6.392 4.223-10.487 9.9-10.487 3.808 0 5.69 1.671 6.97 3.914l2.108-1.475C21.44 2.078 18.331 0 13.663 0 6.227 0 1.168 5.277 1.168 12.934c0 7 4.953 11.066 10.856 11.066 4.878 0 9.809-2.846 9.809-7.716 0-2.545-1.46-4.231-3.569-5.187m-6.33 4.855c-1.077 0-2.026-.512-2.026-1.453 0-1.483 1.822-1.934 3.606-1.934.678 0 1.34.045 1.927.173-.422 1.927-1.671 3.215-3.508 3.214Z"/></symbol><symbol id="kd-si-x" viewBox="0 0 24 24"><path fill="currentColor" d="M14.234 10.162 22.977 0h-2.072l-7.591 8.824L7.251 0H.258l9.168 13.343L.258 24H2.33l8.016-9.318L16.749 24h6.993zm-2.837 3.299-.929-1.329L3.076 1.56h3.182l5.965 8.532.929 1.329 7.754 11.09h-3.182z"/></symbol><symbol id="kd-si-whatsapp" viewBox="0 0 24 24"><path fill="currentColor" d="M17.472 14.382c-.297-.149-1.758-.867-2.03-.967-.273-.099-.471-.148-.67.15-.197.297-.767.966-.94 1.164-.173.199-.347.223-.644.075-.297-.15-1.255-.463-2.39-1.475-.883-.788-1.48-1.761-1.653-2.059-.173-.297-.018-.458.13-.606.134-.133.298-.347.446-.52.149-.174.198-.298.298-.497.099-.198.05-.371-.025-.52-.075-.149-.669-1.612-.916-2.207-.242-.579-.487-.5-.669-.51-.173-.008-.371-.01-.57-.01-.198 0-.52.074-.792.372-.272.297-1.04 1.016-1.04 2.479 0 1.462 1.065 2.875 1.213 3.074.149.198 2.096 3.2 5.077 4.487.709.306 1.262.489 1.694.625.712.227 1.36.195 1.871.118.571-.085 1.758-.719 2.006-1.413.248-.694.248-1.289.173-1.413-.074-.124-.272-.198-.57-.347m-5.421 7.403h-.004a9.87 9.87 0 01-5.031-1.378l-.361-.214-3.741.982.998-3.648-.235-.374a9.86 9.86 0 01-1.51-5.26c.001-5.45 4.436-9.884 9.888-9.884 2.64 0 5.122 1.03 6.988 2.898a9.825 9.825 0 012.893 6.994c-.003 5.45-4.437 9.884-9.885 9.884m8.413-18.297A11.815 11.815 0 0012.05 0C5.495 0 .16 5.335.157 11.892c0 2.096.547 4.142 1.588 5.945L.057 24l6.305-1.654a11.882 11.882 0 005.683 1.448h.005c6.554 0 11.89-5.335 11.893-11.893a11.821 11.821 0 00-3.48-8.413Z"/></symbol><symbol id="kd-si-github" viewBox="0 0 24 24"><path fill="currentColor" d="M12 .297c-6.63 0-12 5.373-12 12 0 5.303 3.438 9.8 8.205 11.385.6.113.82-.258.82-.577 0-.285-.01-1.04-.015-2.04-3.338.724-4.042-1.61-4.042-1.61C4.422 18.07 3.633 17.7 3.633 17.7c-1.087-.744.084-.729.084-.729 1.205.084 1.838 1.236 1.838 1.236 1.07 1.835 2.809 1.305 3.495.998.108-.776.417-1.305.76-1.605-2.665-.3-5.466-1.332-5.466-5.93 0-1.31.465-2.38 1.235-3.22-.135-.303-.54-1.523.105-3.176 0 0 1.005-.322 3.3 1.23.96-.267 1.98-.399 3-.405 1.02.006 2.04.138 3 .405 2.28-1.552 3.285-1.23 3.285-1.23.645 1.653.24 2.873.12 3.176.765.84 1.23 1.91 1.23 3.22 0 4.61-2.805 5.625-5.475 5.92.42.36.81 1.096.81 2.22 0 1.606-.015 2.896-.015 3.286 0 .315.21.69.825.57C20.565 22.092 24 17.592 24 12.297c0-6.627-5.373-12-12-12"/></symbol><symbol id="kd-si-email" viewBox="0 0 24 24"><g fill="none" stroke="currentColor" stroke-linecap="round" stroke-linejoin="round" style="stroke-width:var(--kd-si-sw,2)"><rect x="2" y="4" width="20" height="16" rx="2"/><path d="m22 7-8.97 5.7a1.94 1.94 0 0 1-2.06 0L2 7"/></g></symbol><symbol id="kd-si-phone" viewBox="0 0 24 24"><g fill="none" stroke="currentColor" stroke-linecap="round" stroke-linejoin="round" style="stroke-width:var(--kd-si-sw,2)"><path d="M22 16.92v3a2 2 0 0 1-2.18 2 19.79 19.79 0 0 1-8.63-3.07 19.5 19.5 0 0 1-6-6 19.79 19.79 0 0 1-3.07-8.67A2 2 0 0 1 4.11 2h3a2 2 0 0 1 2 1.72 12.84 12.84 0 0 0 .7 2.81 2 2 0 0 1-.45 2.11L8.09 9.91a16 16 0 0 0 6 6l1.27-1.27a2 2 0 0 1 2.11-.45 12.84 12.84 0 0 0 2.81.7A2 2 0 0 1 22 16.92z"/></g></symbol><symbol id="kd-si-web" viewBox="0 0 24 24"><g fill="none" stroke="currentColor" stroke-linecap="round" stroke-linejoin="round" style="stroke-width:var(--kd-si-sw,2)"><circle cx="12" cy="12" r="10"/><path d="M12 2a14.5 14.5 0 0 0 0 20 14.5 14.5 0 0 0 0-20M2 12h20"/></g></symbol><symbol id="kd-si-location" viewBox="0 0 24 24"><g fill="none" stroke="currentColor" stroke-linecap="round" stroke-linejoin="round" style="stroke-width:var(--kd-si-sw,2)"><path d="M20 10c0 4.99-5.54 10.19-7.4 11.8a1 1 0 0 1-1.2 0C9.54 20.19 4 14.99 4 10a8 8 0 0 1 16 0"/><circle cx="12" cy="10" r="3"/></g></symbol></svg>
