<svg xmlns="http://www.w3.org/2000/svg" width="1080" height="1350" viewBox="0 0 1080 1350"><style>@import url('https://fonts.googleapis.com/css2?family=Red+Hat+Display:wght@500;600;700;800&amp;family=Plus+Jakarta+Sans:wght@400;500;600;700&amp;family=IBM+Plex+Sans+Thai:wght@400;500;600;700&amp;display=block');@font-face{font-family:"LINE Seed Sans TH";font-weight:700;src:url(https://cdn.jsdelivr.net/npm/@fontpkg/line-seed-sans-th@1.0.1/LINESeedSansTH_Bd.ttf)}@font-face{font-family:"LINE Seed Sans TH";font-weight:800;src:url(https://cdn.jsdelivr.net/npm/@fontpkg/line-seed-sans-th@1.0.1/LINESeedSansTH_XBd.ttf)}</style><rect width="1080" height="1350" fill="#FFFFFF"/><rect x="872" y="96" width="56" height="56" rx="8" fill="#0059FF"/><rect x="940" y="164" width="48" height="48" rx="8" fill="#0059FF"/><rect x="1000" y="224" width="32" height="32" rx="6" fill="#7FAEFF"/><rect x="952" y="80" width="28" height="28" rx="6" fill="#7FAEFF"/><text font-family="'Red Hat Display','LINE Seed Sans TH',sans-serif" font-size="180" font-weight="800" fill="#0059FF"><tspan x="88" y="330">01</tspan></text><text font-family="'Red Hat Display','LINE Seed Sans TH',sans-serif" font-size="64" font-weight="800" fill="#041A53"><tspan x="88" y="500">[หัวข้อย่อยของหน้านี้</tspan><tspan x="88" y="578.08">ไม่เกิน 2 บรรทัด]</tspan></text><text font-family="'Plus Jakarta Sans','IBM Plex Sans Thai',sans-serif" font-size="32" font-weight="400" fill="#56627F"><tspan x="88" y="700">[เนื้อหา 3–5 บรรทัด ประโยคสั้น</tspan><tspan x="88" y="752.8">บอกผลลัพธ์ก่อน แล้วค่อยบอกวิธี</tspan><tspan x="88" y="805.6">ศัพท์เทคนิคให้อธิบายสั้นๆ ทุกครั้ง]</tspan></text><text font-family="'Plus Jakarta Sans','IBM Plex Sans Thai',sans-serif" font-size="28" font-weight="600" fill="#56627F" text-anchor="end"><tspan x="992" y="1110">[2 / 6]</tspan></text><rect x="88" y="1166" width="904" height="2" fill="#DCE3F0"/><g transform="translate(88 1210) scale(0.5909090909090909)"><g transform="translate(-8,-8)"><rect x="12" y="12" width="22" height="76" rx="2" fill="#041A53"/><path d="M34 50 L62 12 H88 L52 62 H34Z" fill="#0059FF"/><rect x="52" y="58" width="14" height="14" rx="2" fill="#0059FF"/><rect x="69" y="71" width="12" height="12" rx="2" fill="#0059FF"/><rect x="84" y="84" width="8" height="8" rx="1.5" fill="#7FAEFF"/><rect x="72" y="56" width="7" height="7" rx="1.5" fill="#7FAEFF"/></g><text x="102" y="47" font-family="Red Hat Display, sans-serif" font-weight="700" font-size="37" letter-spacing="-0.55" fill="#041A53">Krabi Digital</text><text x="103" y="69" font-family="Red Hat Display, sans-serif" font-weight="600" font-size="14" letter-spacing="6.2" fill="#041A53" fill-opacity=".72">SOLUTIONS</text></g><text font-family="'Plus Jakarta Sans','IBM Plex Sans Thai',sans-serif" font-size="26" font-weight="500" fill="#041A53" text-anchor="end" fill-opacity="0.72"><tspan x="992" y="1246">krabitech.com</tspan></text></svg>