<svg xmlns="http://www.w3.org/2000/svg" width="1080" height="1350" viewBox="0 0 1080 1350"><style>@import url('https://fonts.googleapis.com/css2?family=Red+Hat+Display:wght@500;600;700;800&amp;family=Plus+Jakarta+Sans:wght@400;500;600;700&amp;family=IBM+Plex+Sans+Thai:wght@400;500;600;700&amp;display=block');@font-face{font-family:"LINE Seed Sans TH";font-weight:700;src:url(https://cdn.jsdelivr.net/npm/@fontpkg/line-seed-sans-th@1.0.1/LINESeedSansTH_Bd.ttf)}@font-face{font-family:"LINE Seed Sans TH";font-weight:800;src:url(https://cdn.jsdelivr.net/npm/@fontpkg/line-seed-sans-th@1.0.1/LINESeedSansTH_XBd.ttf)}</style><rect width="1080" height="1350" fill="#041A53"/><rect x="872" y="96" width="56" height="56" rx="8" fill="#0059FF"/><rect x="940" y="164" width="48" height="48" rx="8" fill="#0059FF"/><rect x="1000" y="224" width="32" height="32" rx="6" fill="#09FFFF"/><rect x="952" y="80" width="28" height="28" rx="6" fill="#09FFFF"/><rect x="88" y="147" width="20" height="20" rx="4" fill="#0059FF"/><text font-family="'Plus Jakarta Sans','IBM Plex Sans Thai',sans-serif" font-size="28" font-weight="600" fill="#FFFFFF" letter-spacing="1" fill-opacity="0.8"><tspan x="124" y="168">เสียงจากลูกค้า</tspan></text><rect x="88" y="300" width="60" height="60" rx="8" fill="#09FFFF"/><path d="M118 352 L148 352 L124 410 L102 410Z" fill="#09FFFF"/><rect x="172" y="300" width="60" height="60" rx="8" fill="#09FFFF"/><path d="M202 352 L232 352 L208 410 L186 410Z" fill="#09FFFF"/><text font-family="'Red Hat Display','LINE Seed Sans TH',sans-serif" font-size="56" font-weight="700" fill="#FFFFFF"><tspan x="88" y="560">[ข้อความรีวิวจากลูกค้า</tspan><tspan x="88" y="632.8">ยกคำพูดจริง ไม่เกิน</tspan><tspan x="88" y="705.6">4 บรรทัด]</tspan></text><rect x="88" y="900" width="64" height="4" fill="#09FFFF"/><text font-family="'Red Hat Display','LINE Seed Sans TH',sans-serif" font-size="36" font-weight="700" fill="#FFFFFF"><tspan x="88" y="972">[ชื่อ นามสกุล]</tspan></text><text font-family="'Plus Jakarta Sans','IBM Plex Sans Thai',sans-serif" font-size="28" font-weight="400" fill="#FFFFFF" fill-opacity="0.72"><tspan x="88" y="1022">[ตำแหน่ง · ชื่อธุรกิจ]</tspan></text><rect x="88" y="1166" width="904" height="2" fill="rgba(255,255,255,.16)"/><g transform="translate(88 1210) scale(0.5909090909090909)"><g transform="translate(-8,-8)"><rect x="12" y="12" width="22" height="76" rx="2" fill="#FFFFFF"/><path d="M34 50 L62 12 H88 L52 62 H34Z" fill="#0059FF"/><rect x="52" y="58" width="14" height="14" rx="2" fill="#0059FF"/><rect x="69" y="71" width="12" height="12" rx="2" fill="#0059FF"/><rect x="84" y="84" width="8" height="8" rx="1.5" fill="#09FFFF"/><rect x="72" y="56" width="7" height="7" rx="1.5" fill="#09FFFF"/></g><text x="102" y="47" font-family="Red Hat Display, sans-serif" font-weight="700" font-size="37" letter-spacing="-0.55" fill="#FFFFFF">Krabi Digital</text><text x="103" y="69" font-family="Red Hat Display, sans-serif" font-weight="600" font-size="14" letter-spacing="6.2" fill="#FFFFFF" fill-opacity=".72">SOLUTIONS</text></g><text font-family="'Plus Jakarta Sans','IBM Plex Sans Thai',sans-serif" font-size="26" font-weight="500" fill="#FFFFFF" text-anchor="end" fill-opacity="0.72"><tspan x="992" y="1246">krabitech.com</tspan></text></svg>